# xmcd
#
# Track frame offsets: 
#        150
#        13325
#        25450
#        36375
#        47525
#        59487
#        70575
#        80525
#        93512
#        106437
#
# Disc length: 1595 seconds
#
# Revision: 0
# Processed by: cddbd v1.4PL0 Copyright (c) Steve Scherf et al.
# Submitted via: ExactAudioCopy v0.90b3
#
DISCID=8506390a
DTITLE=Freddy Weller - Freddy Weller Sings His Big Ones
DYEAR=1900
DGENRE=Country
TTITLE0=Games People Play
TTITLE1=These Are Not My People
TTITLE2=The Promised Land
TTITLE3=Indian Lake
TTITLE4=She Loves Me (Right Out of My Mind)
TTITLE5=Another Night of Love
TTITLE6=Too Much Monkey Business
TTITLE7=The Perfect Stranger
TTITLE8=I've Just Got to Know (How Loving You Would Be)
TTITLE9=You're Not Getting Older (You're Getting Better)
EXTD=
EXTT0=
EXTT1=
EXTT2=
EXTT3=
EXTT4=
EXTT5=
EXTT6=
EXTT7=
EXTT8=
EXTT9=
PLAYORDER=
